# xmcd
#
# Track frame offsets:
#        150
#        12126
#        28134
#        45340
#        59956
#        73995
#        91643
#        108151
#        125346
#        139528
#        149866
#        163809
#        180816
#        197315
#        214297
#
# Disc length: 3024 seconds
#
# Revision: 0
# Processed by: cddbd v1.5.2PL0 Copyright (c) Steve Scherf et al.
# Submitted via: CDGFix 3.8
#
DISCID=d40bce0f
DTITLE=Various Artist - CB80122
DYEAR=1900
DGENRE=Karaoke
TTITLE0=Exile - Woke Up In Love
TTITLE1=George Strait - You Look So Good In Love
TTITLE2=Alabama - Roll On Eighteen Wheeler
TTITLE3=Merle Haggard - That's The Way Love Goes
TTITLE4=Janie Fricke - Let's Stop Talking About It
TTITLE5=T.G. Sheppard - Slow Burn
TTITLE6=The Statler Brothers - Elizabeth
TTITLE7=John Conlee - In My Eyes
TTITLE8=Don Williams - Stay Young
TTITLE9=George Strait - Right Or Wrong
TTITLE10=Anne Murray - Just Another Woman In Love
TTITLE11=Julio Iglesias and Willie Nelson - To All The Girls I've Loved Before
TTITLE12=John Conlee - As Long As I'm Rockin' With You
TTITLE13=Alabama - When We Make Love
TTITLE14=Vern Gosdin - I Can Tell By The Way You Dance
EXTD=
EXTT0=
EXTT1=
EXTT2=
EXTT3=
EXTT4=
EXTT5=
EXTT6=
EXTT7=
EXTT8=
EXTT9=
EXTT10=
EXTT11=
EXTT12=
EXTT13=
EXTT14=
PLAYORDER=
